# xmcd CD database file
#
# Track frame offsets:
#	150
#	13532
#	26300
#	40490
#	55397
#	66592
#	78074
#	89867
#	101620
#	112746
#	125253
#	137352
#	150438
#	162177
#	174459
#	185938
#	197672
#	209957
#
# Disc length: 2958 seconds
#
# Revision: 0
# Processed by: cddbd v1.4PL0 Copyright (c) Steve Scherf et al.
# Submitted via: CDex 1.40Release
#
DISCID=f60b8c12
DTITLE=Leon Pappy Selph - and His Blue Ridge Playboys - Disc 2
DYEAR=1900
DGENRE=Country
TTITLE0=My Precious Baby Girl (1939)
TTITLE1=Some Day (1939)
TTITLE2=Two More Years (1939)
TTITLE3=What Difference Does It Make (1939)
TTITLE4=Why Do I Love You (1939)
TTITLE5=You're My Darling (1939)
TTITLE6=Daisy Mae (1940)
TTITLE7=I'm Just A Country Boy (1940)
TTITLE8=I'm Sorry I Ever Met You (1940)
TTITLE9=Nobody But Me (1940)
TTITLE10=Nobody Cares For Me (1940)
TTITLE11=Polecat Stomp (1940)
TTITLE12=Sweet Magnolia Blossoms (1940)
TTITLE13=Take Texas Off (1940)
TTITLE14=Florene (1941)
TTITLE15=Just Forget (1941)
TTITLE16=Lovin' And Leavin' (1941)
TTITLE17=Natcherly (1941)
EXTD=ID3G: 2
EXTT0=
EXTT1=
EXTT2=
EXTT3=
EXTT4=
EXTT5=
EXTT6=
EXTT7=
EXTT8=
EXTT9=
EXTT10=
EXTT11=
EXTT12=
EXTT13=
EXTT14=
EXTT15=
EXTT16=
EXTT17=
PLAYORDER=
